<?xml version="1.0" encoding="utf-8"?>
<svg width="473" height="114" viewBox="0 0 473 114" fill="none" xmlns="http://www.w3.org/2000/svg">
  <rect x="1.34085" y="0.977571" width="469.617" height="111.015" rx="26.2987" fill="#FDFDFD" stroke="#EBEBEB" stroke-width="1.87848"/>
  <rect x="29.1165" y="32.8794" width="46.962" height="46.962" rx="10.3316" stroke="#B9B9B9" stroke-width="1.87848"/>
  <path d="M107.964 67.384L107.964 47.5307H111.046V67.384H107.964ZM113.977 54.575L115.119 47.5307H118.091L116.082 54.575H113.977ZM119.59 67.384V52.9102H122.59V55.1528H122.645C122.956 54.3915 123.466 53.7816 124.172 53.3229C124.878 52.8643 125.704 52.635 126.648 52.635C127.309 52.635 127.905 52.7451 128.437 52.9652C128.978 53.1854 129.441 53.511 129.827 53.9421C130.212 54.364 130.496 54.8776 130.68 55.483H130.748C130.996 54.896 131.34 54.3915 131.78 53.9696C132.23 53.5385 132.748 53.2083 133.335 52.979C133.931 52.7497 134.573 52.635 135.261 52.635C136.215 52.635 137.045 52.8368 137.751 53.2404C138.458 53.6348 139.008 54.1897 139.402 54.9052C139.797 55.6206 139.994 56.4599 139.994 57.4229V67.384H136.995V58.1521C136.995 57.5193 136.885 56.9827 136.664 56.5424C136.453 56.1021 136.142 55.7674 135.729 55.538C135.325 55.3087 134.825 55.1941 134.229 55.1941C133.642 55.1941 133.124 55.3271 132.674 55.5931C132.234 55.8591 131.886 56.2306 131.629 56.7075C131.381 57.1845 131.257 57.7256 131.257 58.331V67.384H128.327V57.932C128.327 57.3725 128.212 56.891 127.983 56.4874C127.763 56.0746 127.451 55.7582 127.047 55.538C126.644 55.3087 126.158 55.1941 125.589 55.1941C125.011 55.1941 124.493 55.3363 124.034 55.6206C123.585 55.8958 123.232 56.2764 122.975 56.7625C122.718 57.2487 122.59 57.8082 122.59 58.4411V67.384H119.59ZM152.803 67.6454C151.84 67.6454 150.996 67.462 150.272 67.0951C149.547 66.7282 148.983 66.2146 148.579 65.5542C148.176 64.8938 147.974 64.1325 147.974 63.2703V63.2428C147.974 62.3989 148.185 61.6743 148.607 61.0689C149.029 60.4544 149.639 59.9683 150.437 59.6105C151.244 59.2528 152.216 59.0419 153.353 58.9776L158.829 58.6474V60.7387L153.752 61.0552C152.863 61.1102 152.175 61.3257 151.689 61.7018C151.212 62.0687 150.973 62.5594 150.973 63.174V63.2015C150.973 63.8344 151.212 64.3343 151.689 64.7011C152.175 65.068 152.817 65.2515 153.615 65.2515C154.312 65.2515 154.936 65.1093 155.486 64.825C156.045 64.5406 156.486 64.1508 156.807 63.6555C157.128 63.151 157.288 62.5869 157.288 61.9632V57.6568C157.288 56.8589 157.041 56.2351 156.545 55.7857C156.05 55.3271 155.339 55.0978 154.413 55.0978C153.56 55.0978 152.872 55.2812 152.349 55.6481C151.835 56.015 151.514 56.4874 151.386 57.0652L151.358 57.1891H148.552L148.565 57.0377C148.639 56.203 148.919 55.4555 149.405 54.7951C149.891 54.1255 150.565 53.5981 151.427 53.2129C152.289 52.8276 153.312 52.635 154.495 52.635C155.679 52.635 156.701 52.8322 157.563 53.2266C158.426 53.621 159.095 54.176 159.572 54.8914C160.049 55.6068 160.288 56.4461 160.288 57.4092V67.384H157.288V65.1001H157.233C156.949 65.623 156.582 66.077 156.133 66.4622C155.683 66.8383 155.174 67.1318 154.605 67.3428C154.046 67.5446 153.445 67.6454 152.803 67.6454ZM168.969 67.384V47.5307H171.955V55.2904H172.024C172.4 54.4465 172.968 53.7953 173.73 53.3367C174.5 52.8689 175.426 52.635 176.509 52.635C177.545 52.635 178.444 52.8781 179.205 53.3642C179.976 53.8412 180.572 54.5153 180.994 55.3867C181.425 56.2581 181.641 57.2762 181.641 58.4411V67.384H178.655V59.0052C178.655 57.8036 178.366 56.868 177.788 56.1984C177.21 55.5289 176.399 55.1941 175.353 55.1941C174.674 55.1941 174.078 55.3546 173.564 55.6756C173.06 55.9967 172.666 56.4415 172.381 57.0102C172.097 57.5789 171.955 58.2439 171.955 59.0052V67.384H168.969ZM189.442 67.673C188.387 67.673 187.483 67.4574 186.731 67.0263C185.988 66.586 185.42 65.9623 185.025 65.1552C184.631 64.348 184.434 63.3895 184.434 62.2797V52.9102H187.433V61.7156C187.433 62.8071 187.685 63.6463 188.19 64.2334C188.703 64.8112 189.474 65.1001 190.501 65.1001C191.033 65.1001 191.505 65.013 191.918 64.8387C192.34 64.6553 192.702 64.403 193.005 64.082C193.308 63.7518 193.537 63.3574 193.693 62.8988C193.858 62.431 193.941 61.9174 193.941 61.3579V52.9102H196.926V67.384H193.941V65.2102H193.872C193.624 65.6872 193.294 66.1137 192.881 66.4897C192.469 66.8566 191.973 67.1456 191.395 67.3565C190.827 67.5675 190.175 67.673 189.442 67.673ZM199.857 67.384V52.9102H202.856V55.1528H202.911C203.223 54.3915 203.732 53.7816 204.438 53.3229C205.145 52.8643 205.97 52.635 206.915 52.635C207.575 52.635 208.171 52.7451 208.703 52.9652C209.245 53.1854 209.708 53.511 210.093 53.9421C210.478 54.364 210.763 54.8776 210.946 55.483H211.015C211.263 54.896 211.606 54.3915 212.047 53.9696C212.496 53.5385 213.014 53.2083 213.601 52.979C214.198 52.7497 214.84 52.635 215.528 52.635C216.482 52.635 217.312 52.8368 218.018 53.2404C218.724 53.6348 219.275 54.1897 219.669 54.9052C220.063 55.6206 220.261 56.4599 220.261 57.4229V67.384H217.261V58.1521C217.261 57.5193 217.151 56.9827 216.931 56.5424C216.72 56.1021 216.408 55.7674 215.995 55.538C215.592 55.3087 215.092 55.1941 214.496 55.1941C213.909 55.1941 213.39 55.3271 212.941 55.5931C212.501 55.8591 212.152 56.2306 211.895 56.7075C211.648 57.1845 211.524 57.7256 211.524 58.331V67.384H208.593V57.932C208.593 57.3725 208.479 56.891 208.249 56.4874C208.029 56.0746 207.717 55.7582 207.314 55.538C206.91 55.3087 206.424 55.1941 205.855 55.1941C205.278 55.1941 204.759 55.3363 204.301 55.6206C203.851 55.8958 203.498 56.2764 203.241 56.7625C202.985 57.2487 202.856 57.8082 202.856 58.4411V67.384H199.857ZM227.374 67.6454C226.411 67.6454 225.567 67.462 224.842 67.0951C224.117 66.7282 223.553 66.2146 223.15 65.5542C222.746 64.8938 222.544 64.1325 222.544 63.2703V63.2428C222.544 62.3989 222.755 61.6743 223.177 61.0689C223.599 60.4544 224.209 59.9683 225.007 59.6105C225.814 59.2528 226.787 59.0419 227.924 58.9776L233.4 58.6474V60.7387L228.323 61.0552C227.433 61.1102 226.745 61.3257 226.259 61.7018C225.782 62.0687 225.544 62.5594 225.544 63.174V63.2015C225.544 63.8344 225.782 64.3343 226.259 64.7011C226.745 65.068 227.387 65.2515 228.185 65.2515C228.882 65.2515 229.506 65.1093 230.057 64.825C230.616 64.5406 231.056 64.1508 231.377 63.6555C231.698 63.151 231.859 62.5869 231.859 61.9632V57.6568C231.859 56.8589 231.611 56.2351 231.116 55.7857C230.621 55.3271 229.91 55.0978 228.983 55.0978C228.13 55.0978 227.442 55.2812 226.92 55.6481C226.406 56.015 226.085 56.4874 225.957 57.0652L225.929 57.1891H223.122L223.136 57.0377C223.209 56.203 223.489 55.4555 223.975 54.7951C224.461 54.1255 225.136 53.5981 225.998 53.2129C226.86 52.8276 227.883 52.635 229.066 52.635C230.249 52.635 231.272 52.8322 232.134 53.2266C232.996 53.621 233.666 54.176 234.143 54.8914C234.62 55.6068 234.858 56.4461 234.858 57.4092V67.384H231.859V65.1001H231.804C231.52 65.623 231.153 66.077 230.703 66.4622C230.254 66.8383 229.745 67.1318 229.176 67.3428C228.616 67.5446 228.016 67.6454 227.374 67.6454ZM237.72 67.384V52.9102H240.719V55.0978H240.774C241.16 54.364 241.724 53.7724 242.467 53.3229C243.21 52.8643 244.127 52.635 245.218 52.635C246.805 52.635 248.034 53.1166 248.906 54.0797C249.777 55.0336 250.213 56.3452 250.213 58.0146V67.384H247.227V58.5924C247.227 57.5009 246.97 56.6616 246.457 56.0746C245.952 55.4876 245.186 55.1941 244.159 55.1941C243.462 55.1941 242.852 55.35 242.329 55.6619C241.815 55.9737 241.416 56.4094 241.132 56.9689C240.857 57.5284 240.719 58.1888 240.719 58.9501V67.384H237.72Z" fill="#212121"/>
  <text style="fill: rgb(51, 51, 51); font-family: Arial, sans-serif; font-size: 15px; white-space: pre;"><tspan x="418.35" y="104.603" style="text-decoration: underline;">Zeno</tspan></text>
</svg>